<?xml version="1.0" encoding="UTF-8"?>
<svg viewBox="0 0 20.841249 30.092218" id="Layer_1" xmlns="http://www.w3.org/2000/svg">
 <defs>
  <linearGradient id="c" x1="42.81" x2="25.402" y1="49.537" y2="35.062" gradientUnits="userSpaceOnUse">
   <stop stop-color="#ffc84f" offset="0"/>
   <stop stop-color="#ffc84f" stop-opacity="0" offset="1"/>
  </linearGradient>
  <linearGradient id="b" x1="30.512" x2="52.595" y1="31.969" y2="32.045" gradientUnits="userSpaceOnUse">
   <stop stop-color="#8e9194" offset="0"/>
   <stop stop-color="#a1a3a6" stop-opacity=".749" offset=".1532"/>
   <stop stop-color="#b4b6b8" stop-opacity=".498" offset=".7456"/>
   <stop stop-color="#dbdcdd" stop-opacity="0" offset="1"/>
  </linearGradient>
  <linearGradient id="a" x1="38.97" x2="38.945" y1="49.674" y2="42.952" gradientUnits="userSpaceOnUse">
   <stop stop-color="#d49610" offset="0"/>
   <stop stop-color="#6d3f04" offset="1"/>
  </linearGradient>
 </defs>
 <g transform="translate(-28.658 -25.375)">
  <path d="m31.012 38.041v-7.1038s0.22961-5.123 7.5622-5.0414c8.2191 0.09147 8.4818 3.9629 8.4024 4.2012v7.9441h-3.972v-6.1108s0-2.979-3.972-3.0554-4.0484 2.979-4.0484 2.979v6.1872z" fill="url(#b)" stroke="#818181"/>
  <path d="m30.1722,38.04148h17.79778a.99301,.99301 0 0,1 .99301.99301v14.89514a.99301,.99301 0 0,1 -.99301.99301h-17.79778a.99301,.99301 0 0,1 -.99301-.99301v-14.89514a.99301,.99301 0 0,1 .99301-.99301" fill="url(#c)" stroke="#b97913"/>
  <path d="m37.996 48.877 0.02434-3.4318s-1.0709-0.14603-1.0709-1.8254 1.9738-1.7037 1.9738-1.7037 2.0254 0.0036 2.0421 1.582c0.0182 1.728-1.0222 1.9228-1.0222 1.9228l-0.01662 3.4383z" fill="#6d3f04" stroke="url(#a)"/>
  <g transform="translate(22.552 -23.476)" fill="#ce8c02">
   <path d="m8.9798 63.51h14.966v1.0334h-14.966z"/>
   <path d="m8.9798 65.52h4.4186v1.033h-4.4186z"/>
   <path d="m8.9798 67.531h4.4186v1.033h-4.4186z"/>
   <path d="m8.9798 69.541h4.4186v1.033h-4.4186z"/>
   <path d="m8.9798 71.552h4.4186v1.033h-4.4186z"/>
   <path d="m8.9798 73.562h14.966v1.0334h-14.966z"/>
   <path d="m8.9798 75.572h14.966v1.0334h-14.966z"/>
   <path d="m19.528 65.644h4.4186v1.033h-4.4186z"/>
   <path d="m19.528 67.654h4.4186v1.033h-4.4186z"/>
   <path d="m19.528 69.664h4.4186v1.033h-4.4186z"/>
   <path d="m19.528 71.675h4.4186v1.033h-4.4186z"/>
  </g>
 </g>
</svg>
